<svg xmlns="http://www.w3.org/2000/svg" width="1024" height="1024" viewBox="0 0 1024 1024">
  <path d="M -527.13 147.42 C -525.932 145.452 -506.766 131.222 -484.718 112.365 C -474.161 103.335 -457.064 91.628 -442.587 84.312 C -426.244 76.053 -404.665 68.44 -385.349 64.804 C -369.026 61.731 -351.94 59.828 -336.125 59.726 C -285.304 59.4 -241.934 73.98 -231.746 78.22 C -196.554 92.868 -136.94 127.597 -136.94 127.597 L -136.704 127.735 L -136.947 127.593 L -137.204 127.479 L -136.964 127.585 C -136.964 127.585 -109.687 139.828 -80.362 143.139 C -65.892 144.772 -20.299 127.392 -19.217 141.096 C -18.385 151.629 -27.735 179.139 -30.252 185.107 C -40.48 209.359 -64.845 228.853 -65.719 229.976 C -76.991 244.931 -104.628 264.41 -129.752 279.316 C -142.321 286.765 -154.248 293.06 -163.152 297.056 C -167.607 299.049 -171.465 300.022 -173.947 301.169 C -174.141 301.259 -184.578 287.511 -202.094 272.456 C -209.788 265.842 -218.537 258.663 -228.91 252.822 C -251.086 240.334 -279.321 232.64 -301.455 235.104 C -380.197 243.87 -451.299 333.247 -457.669 344.855 C -467.57 362.899 -472.262 371.68 -480.137 395.046 C -488.012 418.412 -488.929 444.71 -492.149 472.371 C -496.163 506.851 -491.267 548.052 -476.826 583.302 C -465.799 610.22 -447.372 632.795 -433.984 651.441 C -425.755 662.902 -399.79 688.186 -380.239 704.89 C -362.085 720.401 -349.229 728.225 -367.046 717.976 C -376.805 713.576 -402.206 694.739 -408.325 690.051 C -409.969 688.789 -412.395 687.081 -414.058 685.837 C -424.585 677.954 -435.271 669.79 -444.566 660.741 C -445.923 659.423 -446.723 658.366 -448.562 656.751 C -453.779 652.168 -475.057 630.07 -479.427 624.96 C -480.377 623.88 -481.338 622.787 -482.294 621.702 C -490.092 612.763 -497.337 603.47 -504.426 593.961 C -504.827 593.43 -505.025 593.168 -505.224 592.905 C -505.432 592.631 -505.648 592.345 -506.052 591.813 C -515.403 579.381 -523.583 566.37 -531.43 552.953 C -531.776 552.366 -531.944 552.081 -532.118 551.787 C -532.292 551.492 -532.48 551.175 -532.832 550.578 C -561.587 501.25 -580.622 444.045 -584.426 386.941 C -584.516 385.741 -584.605 384.546 -584.696 383.321 C -585.436 372.574 -585.586 361.841 -585.555 351.074 C -585.555 348.264 -585.555 345.452 -585.565 342.644 C -585.575 329.507 -585.146 316.547 -583.245 303.521 C -583.15 302.875 -583.102 302.552 -583.055 302.228 C -583.008 301.904 -582.957 301.554 -582.862 300.906 C -577.236 263.85 -566.989 228.821 -552.371 195.685 C -545.047 179.123 -536.625 163.039 -527.13 147.42 Z" fill="#36383b" transform="translate(672.43 143.04)"/>
  <path d="M 3.06 522.91 C -11.7 518.39 -59.879 487.317 -94.366 448.091 C -124.919 413.34 -147.132 377.454 -157.188 335.756 C -170.151 282.004 -164.536 232.665 -156.576 206.304 C -141.384 155.995 -110.081 107.613 -69 75.083 C -16.535 33.54 40.065 13.517 45 23 C 45.32 23.616 46.12 23.82 46.69 24.24 C 58.58 33.02 69.11 43.17 78.67 54.45 C 80.34 56.4 82.14 58.22 84 60 C 82.02 61.48 26.4 78.68 4.94 99.24 C 2.96 101.13 0.94 102.91 -1.18 104.64 C -4.93 107.77 -7.89 111.25 -11 115 C -11.43 115.52 -11.875 116.028 -12.31 116.57 C -34.898 144.705 -34.014 144.698 -49 175 C -94.405 266.81 -63.294 341.839 -6.116 395.062 C 79.921 475.148 198.675 483.63 257.187 470.087 C 285.108 463.624 377.454 425.31 385.19 418.88 C 390.372 414.573 375.26 427.8 370 432 C 368.88 432.93 367.75 433.85 366.63 434.78 C 357.46 442.31 347.86 449.03 338.01 455.64 C 335.66 457.23 333.36 458.89 331.06 460.56 C 311.24 474.45 289.16 486.33 267 496 C 266.32 496.3 265.64 496.6 264.93 496.91 C 251.21 502.97 237.19 508.15 223 513 C 222.07 513.32 221.15 513.64 220.19 513.97 C 165.97 532.3 104.68 538.06 48 531 C 47.07 530.89 46.15 530.79 45.2 530.68 C 33.39 529.3 21.85 527.34 10.3 524.55 C 7.89 523.97 5.429 523.635 3.06 522.91 Z" fill="#333436" transform="translate(414 383)"/>
  <path d="M -123.472 388.999 C -117.285 392.33 -36.198 442.223 12.708 443.803 C 49.933 445.005 92.455 437.105 121.921 418.861 C 164.259 392.647 205.472 319.145 207.497 298.147 C 212.971 241.374 196.001 164.116 190.456 158.693 C 178.057 146.566 153.806 99.247 155.51 101.004 C 160.72 106.375 165.698 111.783 169 116 C 170.37 117.65 171.75 119.29 173.12 120.94 C 183.58 133.75 193.43 146.95 201.9 161.16 C 202.95 162.91 204.03 164.64 205.12 166.38 C 236.104 215.978 257.25 276.833 263.171 341.216 C 266.459 376.967 250.491 422.845 238.447 455.933 C 228.02 480.759 158.808 533.176 106.961 540.884 C 69.156 546.504 52.825 552.804 3.207 546.428 C -10.99 544.604 -41.245 539.31 -71.327 524.245 C -106.119 506.821 -153.676 464.685 -196.001 434.768 C -234.148 407.804 -297.955 413.664 -272 390 C -271.027 389.113 -270.26 388.02 -269.37 387 C -264.54 381.57 -259.59 376.63 -254 372 C -253.12 371.23 -252.24 370.46 -251.33 369.67 C -232.26 353.25 -209.96 341.72 -185.12 337.31 C -181.54 338.1 -181.12 338.71 -178.88 341.45 C -174.74 346.36 -170.29 350.9 -165.75 355.44 C -164.91 356.28 -164.07 357.12 -163.2 357.98 C -157.39 363.74 -151.47 369 -145 374 C -143.17 375.54 -141.33 377.08 -139.5 378.62 C -134.508 382.673 -129.069 385.986 -123.472 388.999 Z" fill="#E1061D" transform="translate(676 106)"/>
  <path d="M 0 0 C 0.33 0 1.231 -8.648 1.571 -8.648 C 2.053 -1.128 0.114 14.42 -1.69 21.75 C -2.005 23.03 -2.23 24.32 -2.51 25.65 C -9.18 56.91 -18.23 88.06 -32 117 C -32.29 117.61 -32.58 118.22 -32.88 118.85 C -40.94 135.69 -49.85 152.32 -60 168 C -60.37 168.58 -60.75 169.15 -61.13 169.75 C -71.17 185.23 -82.2 199.82 -94 214 C -94.5 214.61 -95 215.21 -95.52 215.84 C -101.73 223.34 -108.21 230.42 -115.19 237.21 C -117.83 239.78 -120.074 242.579 -122.67 245.2 C -124.752 247.302 -126.59 249.165 -128.689 251.561 C -130.925 254.113 -134.34 256.73 -137.06 259.12 C -141.691 263.19 -137.147 259.114 -141.559 262.643 C -144.26 264.803 -156.367 270.644 -159.02 272.72 C -164.022 276.635 -227.756 301.939 -230.56 302.85 C -304.943 327.031 -390.14 317.02 -458.08 283.48 C -478.31 273.13 -497.32 261.27 -515 247 C -515.59 246.53 -516.18 246.05 -516.79 245.57 C -531.95 233.31 -546.35 219.42 -557.81 203.62 C -558.98 202.02 -560.2 200.46 -561.43 198.91 C -586.22 166.76 -598.97 124.16 -594.13 83.79 C -591.07 60.66 -585.1 33.66 -572 14 C -602.057 57.531 -486.44 188.898 -344.926 222.129 C -319.979 227.987 -304.803 228.42 -292.126 229.1 C -274.459 230.047 -234.802 221.63 -214.906 218.724 C -132.378 206.671 -6.94 82.924 0 0 Z" fill="#5a5a5a" transform="translate(936 543)"/>
  <path d="M 0 0 C 3.24 2.94 6.41 5.94 9.57 8.96 C 10.39 9.74 11.21 10.53 12.06 11.33 C 45.13 43.48 65.8 88.87 66.97 134.9 C 67.27 164.98 59.65 192.02 44.57 217.96 C 43.97 218.99 43.38 220.03 42.76 221.09 C 35.23 233.47 25.6 244.55 15.57 254.96 C 14.98 255.57 14.4 256.17 13.8 256.79 C 6.12 264.72 -1.65 272.25 -10.43 278.96 C -11.11 279.49 -11.8 280.02 -12.5 280.57 C -46.54 307.05 -84.44 327.09 -124.43 342.96 C -125.3 343.33 -126.17 343.7 -127.07 344.08 C -130.12 345.22 -131.37 345.09 -134.43 343.96 C -136.75 342.23 -138.86 340.51 -141 338.59 C -141.61 338.04 -142.23 337.5 -142.86 336.94 C -144.73 335.29 -146.58 333.63 -148.43 331.96 C -149.91 330.65 -149.91 330.65 -151.42 329.32 C -160.43 321.21 -179.807 301.405 -178.847 301.015 C -170.127 297.405 -149.67 289.29 -141.3 284.93 C -139.45 283.97 -137.6 283.04 -135.75 282.11 C -116.64 272.37 -99.63 259.42 -83.41 245.5 C -81.35 243.74 -79.28 242.01 -77.18 240.29 C -74.51 238.03 -72.57 235.72 -70.43 232.96 C -68.78 231.29 -67.11 229.62 -65.43 227.96 C -43.94 206.04 -20.718 172.854 -19.338 141.114 C -19.408 136.144 -21.69 133.84 -23.81 129.4 C -24.17 128.62 -24.53 127.85 -24.9 127.05 C -37.54 100.51 -58.45 77 -81.43 58.96 C -82.41 58.18 -83.38 57.4 -84.39 56.6 C -141.43 11.67 -213.06 -16.33 -285.87 -16.23 C -286.75 -16.23 -287.64 -16.22 -288.55 -16.22 C -311.77 -16.16 -332.47 -14.279 -355.02 -8.519 C -356.36 -8.179 -372.43 -1.043 -373.76 -0.713 C -371.2 -3.703 -354.03 -11.35 -350.48 -12.97 C -349.89 -13.25 -349.29 -13.52 -348.68 -13.8 C -346.7 -14.7 -344.73 -15.59 -342.75 -16.48 C -342.06 -16.78 -341.37 -17.09 -340.67 -17.41 C -298.59 -36.22 -252.49 -51.37 -206.56 -56.78 C -204.48 -57.03 -202.4 -57.34 -200.32 -57.65 C -131.39 -67.47 -52.19 -46.59 0 0 Z" fill="#7c7c7c" transform="translate(672.43 143.04)"/>
  <path d="M 0 0 C 1.23 0.35 2.47 0.7 3.74 1.05 C 18.98 5.73 32.19 13.67 45 23 C 46.44 23.98 47.87 24.96 49.31 25.94 C 50.2 26.62 53.234 28.992 54.079 29.812 C 54.532 30.25 53.101 30.22 52.537 30.195 C 51.675 30.157 50.98 30.1 49.95 30.2 C -3.98 35.49 -50.45 57.47 -89.25 95.29 C -90.84 96.84 -92.44 98.37 -94.05 99.9 C -100.58 106.2 -106.19 112.95 -111.63 120.19 C -112.97 121.97 -114.34 123.73 -115.71 125.49 C -139.27 156.13 -155.26 194.5 -161.12 232.62 C -161.29 233.68 -164.24 258.76 -164.25 270.5 C -164.25 271.22 -164.25 271.94 -164.25 272.69 C -164.19 345.26 -133.42 409.38 -82.81 460.31 C -78.36 464.74 -73.83 468.99 -69 473 C -68.49 473.44 -67.97 473.88 -67.44 474.33 C -44.98 493.46 -18.585 512.666 9.765 521.606 C 10.425 521.826 23.083 526.338 22.743 527.018 C -19.337 523.067 -68.011 501.111 -104.491 480.231 C -105.229 479.808 -105.765 479.041 -106.48 478.54 C -110.272 475.887 -113.649 473.509 -117.291 470.296 C -118.881 468.986 -120.19 467.4 -121.81 466.12 C -128.17 460.98 -134.07 455.4 -140 449.77 C -143.03 446.9 -146.1 444.08 -149.19 441.28 C -155.89 435.21 -162.04 428.79 -168 422 C -168.48 421.46 -168.969 420.928 -169.45 420.37 C -181.214 406.718 -192.19 392.26 -201.86 376.81 C -202.807 375.298 -203.77 373.8 -204.74 372.3 C -226.04 338.43 -235.09 295.55 -236 256 C -236.02 255.22 -236.04 254.44 -236.06 253.63 C -237.74 180.88 -213.72 109.75 -164 56 C -163.09 54.99 -162.18 53.98 -161.28 52.96 C -156.15 47.25 -150.93 41.9 -145 37 C -144.13 36.24 -143.26 35.49 -142.37 34.71 C -102.32 0.27 -51.4 -14.71 0 0 Z" fill="#575757" transform="translate(414 383)"/>
  <path d="M 0 0 C 0.33 0 0.66 0 1 0 C 6.779 67.95 1.046 137.347 -44.93 191.59 C -50.354 197.989 -56.06 204.08 -62 210 C -62.65 210.68 -63.3 211.37 -63.96 212.07 C -96.71 246.18 -144.09 264.2 -190 271 C -190.78 271.12 -191.56 271.24 -192.36 271.36 C -218.9 275.29 -247.62 274.35 -274 270 C -275.02 269.83 -276.05 269.67 -277.1 269.5 C -325.94 261.27 -374.68 240.22 -414.26 210.3 C -417.06 208.21 -419.91 206.18 -422.75 204.14 C -429.49 199.31 -436.17 194.4 -442.79 189.41 C -454.06 180.93 -465.43 172.63 -477 164.56 C -477.93 163.91 -478.86 163.26 -479.82 162.59 C -486.11 158.23 -492.52 154.08 -499 150 C -500.82 148.83 -502.64 147.66 -504.46 146.5 C -521.08 135.92 -538.2 126.49 -556.05 118.18 C -557.11 117.68 -558.16 117.19 -559.25 116.68 C -561.34 115.7 -563.44 114.73 -565.55 113.77 C -566.5 113.32 -567.45 112.88 -568.43 112.42 C -569.72 111.83 -569.72 111.83 -571.03 111.22 C -573 110 -573.98 111.332 -574.98 108.332 C -574.29 106.422 -573.31 105.09 -572.16 102.94 C -571.53 101.75 -571.53 101.75 -570.89 100.54 C -570.43 99.7 -569.97 98.86 -569.5 98 C -568.8 96.71 -568.8 96.71 -568.09 95.39 C -564.66 89.07 -561.07 82.93 -557 77 C -556.55 76.34 -556.1 75.68 -555.63 75.01 C -554.07 72.75 -552.51 70.5 -550.94 68.25 C -550.2 67.19 -550.2 67.19 -549.44 66.1 C -547.99 64.05 -546.49 62.02 -545 60 C -544.53 59.3 -544.06 58.61 -543.57 57.89 C -542.16 55.96 -540.91 54.44 -539 53 C -532.22 52.62 -526.2 55.67 -520.06 58.31 C -519.02 58.76 -517.97 59.2 -516.89 59.66 C -475.49 77.5 -438.32 101.27 -403.57 129.89 C -401.11 131.91 -398.62 133.9 -396.12 135.88 C -392.88 138.45 -389.72 141.1 -386.59 143.82 C -372.79 155.74 -357.78 165.9 -342 175 C -341.32 175.4 -340.63 175.79 -339.93 176.2 C -321.16 186.97 -300.96 193.92 -280 199 C -279.32 199.17 -278.64 199.33 -277.94 199.51 C -213.19 215.24 -139.84 200.12 -83 167 C -77.11 163.3 -71.51 159.23 -66 155 C -64.52 153.88 -64.52 153.88 -63 152.74 C -49.3 141.98 -38.45 129.59 -29 115 C -28.33 113.98 -27.67 112.97 -26.98 111.92 C -8.59 82.2 -2.84 46.23 -1.34 11.91 C -1.16 7.87 -0.75 4.98 0 0 Z" fill="#C50118" transform="translate(938 449)"/>
  <path d="M 0 0 C 0.85 0.12 1.69 0.24 2.56 0.36 C 40.55 5.73 76.04 19.6 110 37 C 110.88 37.45 111.77 37.9 112.67 38.37 C 147.7 56.56 181.41 82.14 205 114 C 205.43 114.57 205.87 115.14 206.31 115.73 C 227 143.09 227.108 143.239 227.108 156.149 C 185.418 166.699 136.29 157.29 98 140 C 96.87 139.5 96.87 139.5 95.72 138.98 C 82.09 132.82 69.5 124.58 57.02 116.4 C 23.61 94.64 -14.48 81.52 -54 77 C -55.25 76.85 -55.25 76.85 -56.53 76.69 C -92.3 72.32 -127.5 75.88 -162 86 C -162.81 86.23 -163.61 86.47 -164.45 86.71 C -196.23 96.2 -226.08 115.27 -250 138 C -251.31 139.13 -252.62 140.26 -253.94 141.38 C -264.42 150.5 -273.75 160.72 -282.25 171.69 C -282.67 172.23 -283.1 172.78 -283.54 173.35 C -285.41 175.8 -287.13 178.22 -288.67 180.89 C -289.11 181.59 -289.55 182.28 -290 183 C -290.66 183 -291.32 183 -292 183 C -290.49 177.52 -287.86 173.15 -284.88 168.38 C -284.38 167.58 -283.88 166.78 -283.37 165.95 C -272.83 149.02 -261.38 132.64 -249 117 C -248.26 116.07 -247.53 115.14 -246.77 114.18 C -241.57 107.72 -236.06 101.6 -230.42 95.54 C -228.98 93.98 -227.56 92.4 -226.14 90.82 C -221.62 85.8 -217.07 80.98 -211.88 76.63 C -209.87 74.89 -208.04 73.04 -206.19 71.12 C -202.26 67.13 -198 63.64 -193.64 60.14 C -191.46 58.38 -189.38 56.57 -187.31 54.69 C -172.58 41.7 -155.78 31.08 -138.9 21.13 C -136.94 19.96 -134.99 18.77 -133.04 17.58 C -121.9 10.75 -111.73 6.38 -98.99 3.46 C -97.21 3.05 -95.44 2.6 -93.66 2.15 C -64.48 -4.88 -29.61 -4.55 0 0 Z" fill="#42444b" transform="translate(426 128)"/>
  <path d="M 0.104 0.059 C 44.744 21.019 44.64 20.96 65 34 C 65.97 34.62 65.97 34.62 66.97 35.26 C 72 38.48 77 41.73 82 45 C 82.64 45.42 83.28 45.84 83.95 46.27 C 98.25 55.66 112.17 65.55 125.83 75.86 C 138.07 85.1 150.43 94.21 163 103 C 163.54 103.38 164.08 103.76 164.63 104.15 C 199.75 128.8 239.69 147.49 281.56 157.06 C 282.68 157.32 283.8 157.58 284.96 157.84 C 304.91 162.31 324.64 164.24 345.06 164.25 C 346.31 164.25 346.31 164.25 347.59 164.25 C 400.88 164.18 456.68 149.75 498.02 114.56 C 499.94 113.05 509.058 105.005 511.278 104.005 C 510.918 109.125 500.8 118.82 497.38 122.31 C 496.27 123.47 495.16 124.63 494.05 125.79 C 493.52 126.35 492.99 126.9 492.44 127.47 C 490.72 129.3 489.1 131.2 487.5 133.12 C 474.19 148.41 457.07 161.25 440 172 C 438.94 172.68 437.87 173.37 436.77 174.07 C 391.29 202.79 339.73 215.33 286.31 215.44 C 285.36 215.44 284.41 215.45 283.44 215.46 C 234.89 215.66 184.88 201.56 142.04 179.07 C 139.83 177.91 137.61 176.79 135.39 175.66 C 125.13 170.43 115.42 164.66 105.86 158.24 C 104.2 157.13 102.52 156.04 100.84 154.95 C 87.49 146.26 74.99 136.47 63 126 C 62.2 125.31 61.4 124.62 60.57 123.91 C 48.44 113.27 36.86 101.79 27 89 C 26.14 87.94 25.27 86.88 24.41 85.82 C 11.3 69.69 -9 44.28 -9 22.69 C -7.52 17.23 -5.546 12.046 -3.266 6.886 C -2.266 4.556 -0.896 2.389 0.104 0.059 Z" fill="#4f5057" transform="translate(363 557)"/>
  <path d="M 0 0 C 6.31 1.15 11.76 2.99 17.52 5.78 C 18.3 6.15 19.08 6.52 19.89 6.9 C 22.39 8.09 24.88 9.29 27.38 10.5 C 29.1 11.33 30.83 12.16 32.56 12.99 C 51.39 22.04 69.39 31.73 87 43 C 87.62 43.39 88.24 43.79 88.88 44.2 C 101.75 52.42 113.45 62.04 125 72 C 125.72 72.61 126.43 73.23 127.17 73.86 C 133.23 79.11 139.13 84.54 145 90 C 146.19 91.11 146.19 91.11 147.41 92.24 C 150.95 95.64 154.358 98.555 156.578 102.945 C 157.808 104.791 158.891 106.771 160.551 108.726 C 164.003 112.792 166.83 116.86 169.75 121.31 C 170.26 122.09 170.77 122.86 171.3 123.66 C 180.76 138.17 188.98 153.16 196 169 C 196.29 169.64 196.57 170.29 196.87 170.95 C 201.72 181.96 205.07 193.35 208 205 C 208.21 205.81 208.43 206.62 208.65 207.46 C 215.7 235.13 214.87 269.35 208 297 C 207.82 297.78 207.64 298.56 207.45 299.37 C 199.71 332.25 183.84 361.84 161.08 386.7 C 159.35 388.61 157.73 390.56 156.12 392.56 C 152.02 397.38 146.95 401.11 142 405 C 140.53 406.21 140.53 406.21 139.03 407.45 C 119.09 423.51 95.64 432.84 71 439 C 70.09 439.23 69.18 439.46 68.24 439.69 C 41.93 445.94 10.43 445.59 -16 440 C -16.81 439.83 -17.62 439.67 -18.45 439.5 C -55.61 431.63 -89.402 413.599 -120.462 392.209 C -128.673 385.351 -120.49 390.973 -114.589 392.984 C -113.883 393.225 -113.221 393.583 -112.49 393.84 C -85.133 403.476 -52.599 404.801 -24.33 399.49 C -21.78 399.011 -19.25 398.48 -16.7 398 C -3.3 395.37 8.71 390.91 21 385 C 21.7 384.67 22.39 384.34 23.11 384 C 38.61 376.61 51.71 365.86 64 354 C 64.78 353.28 65.55 352.55 66.35 351.8 C 88.81 330.29 104.14 301.15 114 272 C 114.28 271.18 114.56 270.36 114.85 269.51 C 119.31 256.26 122.02 242.83 124 229 C 124.11 228.29 124.21 227.58 124.32 226.84 C 129.5 187.2 121.98 145.51 104 110 C 103.45 108.84 102.89 107.67 102.32 106.47 C 93.37 87.85 81.05 71.1 67 56 C 65.89 54.71 64.79 53.42 63.69 52.12 C 55.56 42.84 46.7 34.61 37 27 C 35.91 26.12 34.82 25.24 33.73 24.35 C 23.97 16.49 13.73 9.5 3.06 2.94 C 2.05 2.3 1.04 1.66 0 1 C 0 0.67 0 0.34 0 0 Z" fill="#F2930C" transform="translate(676 106)"/>
</svg>